# xmcd CD database file
#
# Track frame offsets:
#	150
#	15045
#	38321
#	55698
#	75614
#	93046
#	111321
#	130765
#	146577
#	169755
#	187146
#	213653
#	232511
#
# Disc length: 3297 seconds
#
# Revision: 1
# Processed by: cddbd v1.5.1PL0 Copyright (c) Steve Scherf et al.
# Submitted via: jetAudio 5
#
DISCID=950cdf0d
DTITLE=Faith Hill - Love will always Win
DYEAR=1900
DGENRE=
TTITLE0=This Kiss
TTITLE1=Love Will Always win
TTITLE2=Me
TTITLE3=Let Me Let Go (Movie Version)
TTITLE4=Love Aint Like That
TTITLE5=Piece of My Heart
TTITLE6=The Secret of Life
TTITLE7=Better Days
TTITLE8=I Love You
TTITLE9=The Hard Way
TTITLE10=Somebody Stand by Me
TTITLE11=Let Me Let go
TTITLE12=It Matters To Me
EXTD=
EXTT0=
EXTT1=
EXTT2=
EXTT3=
EXTT4=
EXTT5=
EXTT6=
EXTT7=
EXTT8=
EXTT9=
EXTT10=
EXTT11=
EXTT12=
PLAYORDER=
